<svg xmlns="http://www.w3.org/2000/svg" viewBox="0 0 64 64" fill="none">
  <!-- Background rounded square -->
  <rect width="64" height="64" rx="14" fill="#059669"/>
  <!-- Leaf shape -->
  <path d="M32 12C22 14 16 22 16 32C16 42 22 50 32 52C42 50 48 42 48 32C48 22 42 14 32 12Z" fill="#ffffff" opacity="0.95"/>
  <!-- Leaf vein - center -->
  <path d="M32 18V46" stroke="#059669" stroke-width="2" stroke-linecap="round"/>
  <!-- Leaf veins - left -->
  <path d="M32 24L24 20" stroke="#059669" stroke-width="1.5" stroke-linecap="round"/>
  <path d="M32 30L22 27" stroke="#059669" stroke-width="1.5" stroke-linecap="round"/>
  <path d="M32 36L24 34" stroke="#059669" stroke-width="1.5" stroke-linecap="round"/>
  <path d="M32 42L26 41" stroke="#059669" stroke-width="1.5" stroke-linecap="round"/>
  <!-- Leaf veins - right -->
  <path d="M32 24L40 20" stroke="#059669" stroke-width="1.5" stroke-linecap="round"/>
  <path d="M32 30L42 27" stroke="#059669" stroke-width="1.5" stroke-linecap="round"/>
  <path d="M32 36L40 34" stroke="#059669" stroke-width="1.5" stroke-linecap="round"/>
  <path d="M32 42L38 41" stroke="#059669" stroke-width="1.5" stroke-linecap="round"/>
  <!-- Small "A" lettermark bottom right -->
  <circle cx="48" cy="48" r="10" fill="#f97316"/>
  <text x="48" y="52.5" text-anchor="middle" font-family="Arial, sans-serif" font-weight="bold" font-size="13" fill="white">A</text>
</svg>
